<svg xmlns="http://www.w3.org/2000/svg" width="458" height="358" fill="none"><path fill="#F6F6F6" d="M105.7 346.4s48 24.9 102.8-1.4c54.8-26.3 72.6-77.2 101.1-115.5 14.9-20 39.3-31.2 57.9-48.1 59.5-53.9 38-144-16.4-168.7-47.2-21.3-101.6-13.6-169 22.6S66.1 94.9 30.7 167.1c-35.4 72.3 15.3 144.4 75 179.3Z"/><path fill="#0FAA61" d="M397.299 315s-3.3-14.2-.8-26.7 8.3-4.2 15-12.5c6.7-8.3 3.3-24.2 10.8-30.9 7.5-6.7 18.3-5.8 20.8-18.3s4.2-22.5 9.2-20.8c5 1.7-4.2 16.7-4.2 25.8 0 9.2 5 15 1.7 24.2s-17.5 5.8-17.5 16.7c0 10.9 5.8 21.7.8 29.2s-18.3 9.2-20 13.3c-1.7 4.2-5.8 11.7-10 11.7-4.1 0-5.8-11.7-5.8-11.7Z"/><path fill="#73DDAB" d="M394.599 315.2c.8-2.5-.8-24.2-8.3-28.4-7.5-4.2-15.8-2.5-20-10-4.2-7.5-4.2-10.8-8.3-11.7-4.2-.8-24.2-4.2-21.7 0s17.5-2.5 17.5 5.8-1.7 21.7 3.3 25c5 3.3 18.3 2.5 17.5 10-.8 7.5-3.3 10 .8 12.5 4.2 2.5 15.8 13.3 17.5 5l1.7-8.2Z"/><path stroke="#263238" stroke-miterlimit="10" stroke-width="1.232" d="M403.899 333.6s-3.9-12.1 6.8-34.5 18.5-39.3 23.3-48.1m-38.9 84.5s-1.5-5.8-6.3-21.9c-4.9-16-10.7-20.4-18.9-25.7-8.3-5.3-8.7-14.1-10.2-16.5"/><path fill="#73DDAB" d="M415.499 326.8s1-8.7 8.7-11.2c7.8-2.4 15.1-1.5 16.5-6.8 1.5-5.3 1.5-10.7 4.9-13.6 3.4-2.9 7.8-4.4 8.3-2.9.5 1.5-4.9 2.4-4.9 7.3s7.3 17-3.4 21.9c-10.7 4.9-19.4.5-23.3 3.9-3.9 3.4-6.3 5.8-6.3 5.8l-.5-4.4Z"/><path stroke="#263238" stroke-miterlimit="10" stroke-width="1.232" d="M414.6 335.5s3.4-12.6 11.7-15.5c8.3-2.9 17.5 3.4 21.4-2.4 3.9-5.8 1-11.7.5-15.5"/><path fill="#000" d="M419.999 333.6h-30.1c-1.3 0-2.4 1.1-2.4 2.4 0 1.3 1.1 2.4 2.4 2.4h.2l2.3 6.1c.4 1 1.3 1.6 2.4 1.6h20.2c1 0 2-.6 2.4-1.6l2.3-6.1h.2c1.3 0 2.4-1.1 2.4-2.4.2-1.4-.9-2.4-2.3-2.4Z"/><path stroke="#263238" stroke-linecap="round" stroke-linejoin="round" stroke-miterlimit="10" stroke-width="1.232" d="M96.7 129.1c17.619 0 31.901-14.282 31.901-31.9s-14.282-31.9-31.9-31.9-31.9 14.282-31.9 31.9 14.282 31.9 31.9 31.9Z"/><path stroke="#263238" stroke-linecap="round" stroke-linejoin="round" stroke-miterlimit="10" stroke-width="1.232" d="M100.806 123.283c14.402-2.27 24.237-15.786 21.967-30.188-2.27-14.403-15.786-24.238-30.188-21.968-14.403 2.27-24.238 15.786-21.968 30.189 2.27 14.402 15.786 24.237 30.189 21.967Z"/><path stroke="#263238" stroke-linecap="round" stroke-linejoin="round" stroke-miterlimit="10" stroke-width="1.232" d="M79.9 97.2h16.8v24.4"/><path fill="#263238" stroke="#181818" stroke-linecap="round" stroke-linejoin="round" stroke-miterlimit="10" stroke-width="1.232" d="M243.801 340.8c0-3 2.4-5.4 5.4-5.4 3 0 5.4 2.4 5.4 5.4 0 3-2.4 5.4-5.4 5.4-3 0-5.4-2.4-5.4-5.4Z"/><path fill="#fff" stroke="#181818" stroke-linecap="round" stroke-linejoin="round" stroke-miterlimit="10" stroke-width="1.232" d="M246.4 340.801c0-1.5 1.2-2.7 2.7-2.7 1.5 0 2.7 1.2 2.7 2.7 0 1.5-1.2 2.7-2.7 2.7-1.5 0-2.7-1.2-2.7-2.7Z"/><path fill="#263238" stroke="#181818" stroke-linecap="round" stroke-linejoin="round" stroke-miterlimit="10" stroke-width="1.232" d="M186.501 340.8c0-3 2.4-5.4 5.4-5.4 3 0 5.4 2.4 5.4 5.4 0 3-2.4 5.4-5.4 5.4-3 0-5.4-2.4-5.4-5.4Z"/><path fill="#fff" stroke="#181818" stroke-linecap="round" stroke-linejoin="round" stroke-miterlimit="10" stroke-width="1.232" d="M189.101 340.801c0-1.5 1.2-2.7 2.7-2.7 1.5 0 2.7 1.2 2.7 2.7 0 1.5-1.2 2.7-2.7 2.7-1.5 0-2.7-1.2-2.7-2.7Z"/><path fill="#263238" stroke="#181818" stroke-linecap="round" stroke-linejoin="round" stroke-miterlimit="10" stroke-width="1.232" d="M167.701 340.8c0-3 2.4-5.4 5.4-5.4 3 0 5.4 2.4 5.4 5.4 0 3-2.4 5.4-5.4 5.4-3 0-5.4-2.4-5.4-5.4Z"/><path fill="#fff" stroke="#181818" stroke-linecap="round" stroke-linejoin="round" stroke-miterlimit="10" stroke-width="1.232" d="M170.401 340.801c0-1.5 1.2-2.7 2.7-2.7 1.5 0 2.7 1.2 2.7 2.7 0 1.5-1.2 2.7-2.7 2.7-1.5 0-2.7-1.2-2.7-2.7Z"/><path fill="#263238" stroke="#181818" stroke-linecap="round" stroke-linejoin="round" stroke-miterlimit="10" stroke-width="1.232" d="M200.101 334.7h11.3v-57.9h-11.2v57.9h-.1Z"/><path fill="#000" stroke="#181818" stroke-linecap="round" stroke-linejoin="round" stroke-miterlimit="10" stroke-width="1.232" d="M197.124 334.71h17.3v-40.9h-17.3v40.9Z"/><path fill="#263238" d="M217.401 267.1h14.5V236h-14.6l.1 31.1c-.1 0-.1 0 0 0Z"/><path stroke="#181818" stroke-linecap="round" stroke-linejoin="round" stroke-miterlimit="10" stroke-width="1.232" d="M217.401 267.1h14.5V236h-14.6l.1 31.1Zm0 0c-.1 0-.1 0 0 0Z"/><path fill="#0FAA61" stroke="#181818" stroke-linecap="round" stroke-linejoin="round" stroke-miterlimit="10" stroke-width="1.232" d="M195.901 235.9h56.7c5.6 0 10.1-4.6 9.9-10.2l-1.4-55.3c-.1-5.4-4.5-9.7-9.9-9.7h-46.8c-4.9 0-9.1 3.6-9.8 8.4l-8.5 55.3c-.9 6.1 3.8 11.5 9.8 11.5Z"/><path stroke="#181818" stroke-linecap="round" stroke-linejoin="round" stroke-miterlimit="10" stroke-width="1.232" d="m214.501 278.8 24.8 16.4"/><path fill="#263238" stroke="#181818" stroke-linecap="round" stroke-linejoin="round" stroke-miterlimit="10" stroke-width="1.232" d="m240.201 292.7 4.2 2.9c1.5 1 1.6 3.1.4 4.3l-.3.3c-1 1-2.6 1.1-3.7.2l-3.9-3.2c-1.2-1-1.3-2.9-.2-4 1-1.1 2.5-1.2 3.5-.5Z"/><path fill="#0FAA61" stroke="#181818" stroke-linecap="round" stroke-linejoin="round" stroke-miterlimit="10" stroke-width="1.232" d="M159.701 281.6h92.2c4.9 0 8.9-4 8.9-8.9s-4-8.9-8.9-8.9h-92.2c-4.9 0-8.9 4-8.9 8.9s4 8.9 8.9 8.9Z"/><path fill="#0FAA61" stroke="#181818" stroke-linecap="round" stroke-linejoin="round" stroke-miterlimit="10" stroke-width="1.232" d="M150.901 271.7c.5-4.5 4.6-7.8 9.2-7.8h47.8c4.6 0 8.7 3.3 9.2 7.8.6 5.4-3.6 10-8.8 10h-48.5c-5.4-.1-9.6-4.6-8.9-10Z"/><path fill="#181818" stroke="#181818" stroke-linecap="round" stroke-linejoin="round" stroke-miterlimit="10" stroke-width="1.232" d="M166.001 337.9h88.5c0-2.7-2.2-4.8-4.8-4.8h-78.8c-2.7 0-4.9 2.2-4.9 4.8Z"/><path fill="#263238" stroke="#181818" stroke-linecap="round" stroke-linejoin="round" stroke-miterlimit="10" stroke-width="1.232" d="M181.801 337.9h28.8v-4.8h-24c-2.7 0-4.8 2.2-4.8 4.8Z"/><path fill="#181818" stroke="#181818" stroke-linecap="round" stroke-linejoin="round" stroke-miterlimit="10" stroke-width="1.232" d="m175.601 226.701-6.4 10.5s-22.3 2.2-35.1 5.1c-12.7 2.9-15.3 16.9-15.9 19.8-.7 3.2-4.7 70.1-3.4 70.4 1.3.3 10.8 1.3 10.8 1.3s16.1-65 20.9-66c4.8-1 75.5.6 86.1-5.1 10.5-5.7 13.1-22.3 7-33.8-6-11.5-64-2.2-64-2.2Z"/><path fill="#181818" d="M218.901 239.4s-29.6 0-44 1.3c-14.3 1.3-23.3 12.1-22.6 21.7.6 9.6 12.2 72.3 12.2 72.3l11.2-1 6-67.2s10 6.5 48.8-3.5"/><path stroke="#263238" stroke-linecap="round" stroke-linejoin="round" stroke-miterlimit="10" stroke-width="1.232" d="M218.901 239.4s-29.6 0-44 1.3c-14.3 1.3-23.3 12.1-22.6 21.7.6 9.6 12.2 72.3 12.2 72.3l11.2-1 6-67.2s10 6.5 48.8-3.5"/><path fill="#E59E9E" stroke="#263238" stroke-linecap="round" stroke-linejoin="round" stroke-miterlimit="10" stroke-width="1.232" d="M289.117 137.042c-1-.6-4.1 7.6-4.1 7.6s-3.8-.2-6.1 0c-3.5.3-6.4 5.1-6.4 8.3 0 3.2-14.7 28.7-14.7 28.7s-12.7-21-17.2-24.5-21-6.7-21-6.7c-7.4-1-13.1-1.1-20.4 0 0 0-16.6 3.2-21 6.7-4.5 3.5-17.2 24.5-17.2 24.5s-14.7-25.5-14.7-28.7c0-3.2-2.9-8-6.4-8.3-2.2-.2-6.1 0-6.1 0s-3.2-8.3-4.1-7.6c-1 .6.6 10.8 1.6 13.1 1 2.2 8.9 3.8 8.9 3.8s9.9 37.6 13.1 42.7c3.2 5.1 6.7 11.5 15.3 7.6 8.6-3.8 19.4-16.3 19.4-16.3l18.2.3h2.6l22-.3s10.8 12.4 19.4 16.3c8.6 3.8 12.1-2.5 15.3-7.6 3.2-5.1 13.1-42.7 13.1-42.7s8-1.6 8.9-3.8c1-2.3 2.6-12.5 1.6-13.1Z"/><path fill="#fff" d="M262.701 172.6c-2.8 5.1-5.2 9.2-5.2 9.2s-12.7-21-17.2-24.5-21-6.7-21-6.7c-7.4-1-13.1-1.1-20.4 0 0 0-16.6 3.2-21 6.7-4.5 3.5-17.2 24.5-17.2 24.5s-2.5-4.4-5.5-9.8l-8.8 5.3c2.6 8.8 5.2 17.2 6.6 19.4 3.2 5.1 6.7 11.5 15.3 7.6 8.6-3.8 19.4-16.3 19.4-16.3l18.2.3h2.6l22-.3s10.8 12.4 19.4 16.3c8.6 3.8 12.1-2.5 15.3-7.6 1.4-2.2 4.1-10.7 6.6-19.5l-9.1-4.6Z"/><path fill="#C6FF00" d="M255.001 187.601c-.2-2.1-.3-4.1.5-5.3.5-.7.9-1.2 1.3-1.7-.3-.5-.7-1.2-1.3-2-.6.6-1.3 1.4-2 2.4-1.3 1.9-1.1 4.4-.9 6.8.2 2.1.3 4.1-.5 5.3-.7 1.1-1.4 1-3.4.6-1.5-.3-3.5-.7-5.7 0-1.8.6-2.8 2-3.3 3.7.6.6 1.3 1.1 1.9 1.6.3-1.4.9-2.7 2.1-3.1 1.6-.5 3.1-.2 4.5.1 1.9.4 4.1.9 5.8-1.6 1.4-1.9 1.2-4.4 1-6.8Zm-24.6.5s.3.3.8.9c.9-.4 1.6-.7 1.9-1 .2-.2 1.2-.1 2.1 0 1.7.2 4.1.4 7.1-.5 3.9-1.1 4-5.3 4.1-9 .1-2.1.1-4.2.8-5.5.9-1.7 2.4-1.8 3.6-1.5-.5-.8-1-1.6-1.6-2.4-1.5.2-3.1.9-4.1 2.8-1 1.8-1 4.2-1.1 6.5-.1 3.9-.4 6.3-2.5 6.9-2.6.7-4.6.5-6.3.4-1.5-.1-2.8-.3-3.8.5-.5.4-2.5 1.2-4.7 2l3.7-.1Zm-54.8 5.699c-2.2-.7-4.1-.3-5.7 0-1.9.4-2.7.5-3.4-.6-.8-1.3-.7-3.3-.5-5.3.2-2.4.4-4.9-.9-6.8-.8-1.3-1.6-2.2-2.3-2.8-.5.8-.9 1.5-1.3 2 .5.5 1.1 1.2 1.7 2.1.8 1.3.7 3.3.5 5.3-.2 2.4-.4 4.9.9 6.8 1.6 2.4 3.8 2 5.8 1.6 1.4-.3 2.9-.6 4.5-.1 1.1.4 1.7 1.4 2 2.7.6-.5 1.3-1.1 1.9-1.6-.6-1.5-1.6-2.8-3.2-3.3Zm7.6-8.2c-1.7.1-3.7.3-6.3-.4-2.1-.6-2.3-3-2.5-6.9-.1-2.3-.2-4.7-1.1-6.5-1.2-2.1-3-2.8-4.7-2.8-.6.9-1.2 1.7-1.7 2.6 1.2-.4 3.3-.7 4.4 1.3.7 1.3.8 3.4.8 5.5.1 3.7.3 7.9 4.1 9 3 .9 5.4.6 7.1.5.9-.1 1.9-.2 2.1 0 .3.2.8.5 1.5.9.4-.4.6-.7.6-.7l4.1.1c-2.2-.8-4.3-1.6-4.8-2.1-.7-.8-2.1-.7-3.6-.5Z"/><path d="M255.001 187.601c-.2-2.1-.3-4.1.5-5.3.5-.7.9-1.2 1.3-1.7-.3-.5-.7-1.2-1.3-2-.6.6-1.3 1.4-2 2.4-1.3 1.9-1.1 4.4-.9 6.8.2 2.1.3 4.1-.5 5.3-.7 1.1-1.4 1-3.4.6-1.5-.3-3.5-.7-5.7 0-1.8.6-2.8 2-3.3 3.7.6.6 1.3 1.1 1.9 1.6.3-1.4.9-2.7 2.1-3.1 1.6-.5 3.1-.2 4.5.1 1.9.4 4.1.9 5.8-1.6 1.4-1.9 1.2-4.4 1-6.8Zm-24.6.5s.3.3.8.9c.9-.4 1.6-.7 1.9-1 .2-.2 1.2-.1 2.1 0 1.7.2 4.1.4 7.1-.5 3.9-1.1 4-5.3 4.1-9 .1-2.1.1-4.2.8-5.5.9-1.7 2.4-1.8 3.6-1.5-.5-.8-1-1.6-1.6-2.4-1.5.2-3.1.9-4.1 2.8-1 1.8-1 4.2-1.1 6.5-.1 3.9-.4 6.3-2.5 6.9-2.6.7-4.6.5-6.3.4-1.5-.1-2.8-.3-3.8.5-.5.4-2.5 1.2-4.7 2l3.7-.1Zm-54.8 5.699c-2.2-.7-4.1-.3-5.7 0-1.9.4-2.7.5-3.4-.6-.8-1.3-.7-3.3-.5-5.3.2-2.4.4-4.9-.9-6.8-.8-1.3-1.6-2.2-2.3-2.8-.5.8-.9 1.5-1.3 2 .5.5 1.1 1.2 1.7 2.1.8 1.3.7 3.3.5 5.3-.2 2.4-.4 4.9.9 6.8 1.6 2.4 3.8 2 5.8 1.6 1.4-.3 2.9-.6 4.5-.1 1.1.4 1.7 1.4 2 2.7.6-.5 1.3-1.1 1.9-1.6-.6-1.5-1.6-2.8-3.2-3.3Zm7.6-8.2c-1.7.1-3.7.3-6.3-.4-2.1-.6-2.3-3-2.5-6.9-.1-2.3-.2-4.7-1.1-6.5-1.2-2.1-3-2.8-4.7-2.8-.6.9-1.2 1.7-1.7 2.6 1.2-.4 3.3-.7 4.4 1.3.7 1.3.8 3.4.8 5.5.1 3.7.3 7.9 4.1 9 3 .9 5.4.6 7.1.5.9-.1 1.9-.2 2.1 0 .3.2.8.5 1.5.9.4-.4.6-.7.6-.7l4.1.1c-2.2-.8-4.3-1.6-4.8-2.1-.7-.8-2.1-.7-3.6-.5Z" opacity=".5" fill="#fff"/><path stroke="#263238" stroke-linecap="round" stroke-linejoin="round" stroke-miterlimit="10" stroke-width="1.232" d="M262.701 172.6c-2.8 5.1-5.2 9.2-5.2 9.2s-12.7-21-17.2-24.5-21-6.7-21-6.7c-7.4-1-13.1-1.1-20.4 0 0 0-16.6 3.2-21 6.7-4.5 3.5-17.2 24.5-17.2 24.5s-2.5-4.4-5.5-9.8l-8.8 5.3c2.6 8.8 5.2 17.2 6.6 19.4 3.2 5.1 6.7 11.5 15.3 7.6 8.6-3.8 19.4-16.3 19.4-16.3l18.2.3h2.6l22-.3s10.8 12.4 19.4 16.3c8.6 3.8 12.1-2.5 15.3-7.6 1.4-2.2 4.1-10.7 6.6-19.5l-9.1-4.6Z"/><path fill="#fff" d="M181.601 172.8s-4.1 8.9-3.2 14.7c1 5.7 1 7 1 7s-6.1 16.6-7 22.6c-1 6.1 1.9 10.8 5.4 13.4 3.5 2.5 51.3 3.2 58.6 1.3 7.3-1.9 6.7-8.9 6.4-15.3-.3-6.4-2.9-20.1-2.9-20.1s1-19.4-3.2-24.2"/><path fill="#181818" d="M218.201 185.6c-1.4 0-2.9-.6-4.5-2-4.3-4-7.2-4.7-10.3-2.4-.5.4-1 .7-1.4 1.1-3.2 2.4-6.2 4.7-10.9 1.8-1.1-.7-2.1-1.4-2.9-2-3.2-2.3-4.6-3.2-6.8-1.3-1.7 1.4-3 2.2-4.5 2-1.9-.2-3.3-2-5.9-5.6l-.2-.2c-1.1-1.4-2.2-2.2-3.5-2.3-2.2-.2-4 1.7-4.1 1.7-.5.5-1.2.5-1.6 0-.5-.5-.5-1.2 0-1.6.1-.1 2.6-2.6 5.8-2.3 2 .1 3.7 1.2 5.2 3.2l.2.2c2.1 2.7 3.4 4.5 4.3 4.7.5.1 1.4-.4 2.8-1.5 3.7-3.1 6.6-1 9.6 1.2.9.6 1.8 1.3 2.8 1.9 3.4 2.1 5.2.7 8.3-1.7.5-.4 1-.7 1.5-1.1 5.1-3.7 9.6-.8 13.3 2.6 2.8 2.5 4.5 1.4 8.1-1.3.7-.5 1.4-1.1 2.2-1.6l.4-.3c4.7-3.3 5.2-3 11.6.5l1.7.9c2.2 1.2 3.6 2 4.2 1.9.5 0 1.1-.7 2.3-2.1.5-.6 1.1-1.2 1.8-2 5.2-5.5 6.9-5.2 11-3.3l.3.2c.6.3.8.9.6 1.5-.3.6-.9.8-1.5.6l-.3-.2c-3.4-1.6-4.1-1.9-8.4 2.7-.7.7-1.3 1.4-1.8 1.9-3.3 3.8-4 3.6-9.3.6l-1.7-.9c-5.6-3.1-5.6-3.1-9.2-.7l-.4.3c-.8.5-1.5 1.1-2.1 1.6-2.2 1.7-4.4 3.3-6.7 3.3Zm6.6 7.8c.7-.5 1.4-1 2.1-1.6l.4-.3c3.5-2.5 3.5-2.4 9.2.7l1.7.9c5.3 3 6 3.1 9.3-.6.5-.6 1.1-1.2 1.8-1.9 4.3-4.6 4.9-4.3 8.4-2.7l.3.2c.6.3 1.3 0 1.5-.6.3-.6 0-1.3-.6-1.5l-.3-.2c-4.1-1.9-5.8-2.3-11 3.3-.7.8-1.3 1.4-1.8 2-1.2 1.4-1.8 2-2.3 2.1-.6 0-2-.7-4.2-1.9l-1.7-.9c-6.4-3.5-6.9-3.8-11.6-.5l-.4.3c-.8.5-1.5 1.1-2.2 1.6-3.7 2.8-5.4 3.9-8.1 1.3-3.7-3.4-8.1-6.3-13.3-2.6-.5.4-1 .7-1.5 1.1-3.1 2.4-4.9 3.8-8.3 1.7-1-.6-1.9-1.3-2.8-1.9-3-2.2-5.9-4.3-9.6-1.2-1.4 1.1-2.2 1.6-2.8 1.5-.9-.1-2.3-1.9-4.3-4.7l-.2-.2c-1.5-2-3.2-3-5.2-3.2-3.2-.2-5.7 2.2-5.8 2.3-.5.5-.5 1.2 0 1.6.5.5 1.2.5 1.6 0 0 0 1.9-1.8 4.1-1.7 1.3.1 2.4.9 3.5 2.3l.2.2c2.7 3.6 4 5.3 5.9 5.6 1.5.2 2.8-.6 4.5-2 2.3-1.9 3.6-1 6.8 1.3.9.6 1.8 1.3 2.9 2 4.7 2.9 7.7.6 10.9-1.8.5-.4.9-.7 1.4-1.1 3.1-2.2 6-1.6 10.3 2.4 1.6 1.5 3.1 2 4.5 2 2.4 0 4.6-1.6 6.7-3.3Z"/><path fill="#fff" d="M218.201 185.6c-1.4 0-2.9-.6-4.5-2-4.3-4-7.2-4.7-10.3-2.4-.5.4-1 .7-1.4 1.1-3.2 2.4-6.2 4.7-10.9 1.8-1.1-.7-2.1-1.4-2.9-2-3.2-2.3-4.6-3.2-6.8-1.3-1.7 1.4-3 2.2-4.5 2-1.9-.2-3.3-2-5.9-5.6l-.2-.2c-1.1-1.4-2.2-2.2-3.5-2.3-2.2-.2-4 1.7-4.1 1.7-.5.5-1.2.5-1.6 0-.5-.5-.5-1.2 0-1.6.1-.1 2.6-2.6 5.8-2.3 2 .1 3.7 1.2 5.2 3.2l.2.2c2.1 2.7 3.4 4.5 4.3 4.7.5.1 1.4-.4 2.8-1.5 3.7-3.1 6.6-1 9.6 1.2.9.6 1.8 1.3 2.8 1.9 3.4 2.1 5.2.7 8.3-1.7.5-.4 1-.7 1.5-1.1 5.1-3.7 9.6-.8 13.3 2.6 2.8 2.5 4.5 1.4 8.1-1.3.7-.5 1.4-1.1 2.2-1.6l.4-.3c4.7-3.3 5.2-3 11.6.5l1.7.9c2.2 1.2 3.6 2 4.2 1.9.5 0 1.1-.7 2.3-2.1.5-.6 1.1-1.2 1.8-2 5.2-5.5 6.9-5.2 11-3.3l.3.2c.6.3.8.9.6 1.5-.3.6-.9.8-1.5.6l-.3-.2c-3.4-1.6-4.1-1.9-8.4 2.7-.7.7-1.3 1.4-1.8 1.9-3.3 3.8-4 3.6-9.3.6l-1.7-.9c-5.6-3.1-5.6-3.1-9.2-.7l-.4.3c-.8.5-1.5 1.1-2.1 1.6-2.2 1.7-4.4 3.3-6.7 3.3Zm6.6 7.8c.7-.5 1.4-1 2.1-1.6l.4-.3c3.5-2.5 3.5-2.4 9.2.7l1.7.9c5.3 3 6 3.1 9.3-.6.5-.6 1.1-1.2 1.8-1.9 4.3-4.6 4.9-4.3 8.4-2.7l.3.2c.6.3 1.3 0 1.5-.6.3-.6 0-1.3-.6-1.5l-.3-.2c-4.1-1.9-5.8-2.3-11 3.3-.7.8-1.3 1.4-1.8 2-1.2 1.4-1.8 2-2.3 2.1-.6 0-2-.7-4.2-1.9l-1.7-.9c-6.4-3.5-6.9-3.8-11.6-.5l-.4.3c-.8.5-1.5 1.1-2.2 1.6-3.7 2.8-5.4 3.9-8.1 1.3-3.7-3.4-8.1-6.3-13.3-2.6-.5.4-1 .7-1.5 1.1-3.1 2.4-4.9 3.8-8.3 1.7-1-.6-1.9-1.3-2.8-1.9-3-2.2-5.9-4.3-9.6-1.2-1.4 1.1-2.2 1.6-2.8 1.5-.9-.1-2.3-1.9-4.3-4.7l-.2-.2c-1.5-2-3.2-3-5.2-3.2-3.2-.2-5.7 2.2-5.8 2.3-.5.5-.5 1.2 0 1.6.5.5 1.2.5 1.6 0 0 0 1.9-1.8 4.1-1.7 1.3.1 2.4.9 3.5 2.3l.2.2c2.7 3.6 4 5.3 5.9 5.6 1.5.2 2.8-.6 4.5-2 2.3-1.9 3.6-1 6.8 1.3.9.6 1.8 1.3 2.9 2 4.7 2.9 7.7.6 10.9-1.8.5-.4.9-.7 1.4-1.1 3.1-2.2 6-1.6 10.3 2.4 1.6 1.5 3.1 2 4.5 2 2.4 0 4.6-1.6 6.7-3.3Z" opacity=".5"/><path stroke="#263238" stroke-linecap="round" stroke-linejoin="round" stroke-miterlimit="10" stroke-width="1.232" d="M181.601 172.8s-4.1 8.9-3.2 14.7c1 5.7 1 7 1 7s-6.1 16.6-7 22.6c-1 6.1 1.9 10.8 5.4 13.4 3.5 2.5 51.3 3.2 58.6 1.3 7.3-1.9 6.7-8.9 6.4-15.3-.3-6.4-2.9-20.1-2.9-20.1s1-19.4-3.2-24.2"/><path fill="#000" stroke="#263238" stroke-linecap="round" stroke-linejoin="round" stroke-miterlimit="10" stroke-width="1.232" d="M198.801 150.5s-.5.1-1.4.3c-.1.6-.2 1.2-.2 1.8 0 6.1 6.5 11 14.5 11s14.5-4.9 14.5-11v-.5c-3.9-1-7-1.6-7-1.6-7.4-1-13.1-1.1-20.4 0Z"/><path fill="#E59E9E" stroke="#263238" stroke-linecap="round" stroke-linejoin="round" stroke-miterlimit="10" stroke-width="1.232" d="M202.001 144.4s-1 7.6 0 10.2c1 2.5 7 7.3 13.1 5.4 6.1-1.9 7-7.6 7-9.2v-8.9l-19.8.6-.3 1.9Z"/><path fill="#181818" stroke="#263238" stroke-linecap="round" stroke-linejoin="round" stroke-miterlimit="10" stroke-width="1.232" d="M212.202 141.3c12.481 0 22.6-9.939 22.6-22.2 0-12.26-10.119-22.2-22.6-22.2-12.482 0-22.6 9.94-22.6 22.2 0 12.261 10.118 22.2 22.6 22.2Z"/><path fill="#E59E9E" stroke="#263238" stroke-linecap="round" stroke-linejoin="round" stroke-miterlimit="10" stroke-width="1.232" d="M197.901 126.601s-1.9-4.5-3.2-.3c-1.3 4.2 1.6 9.2 3.5 9.6 1.9.2-.3-9.3-.3-9.3Zm27.5 0s1.9-4.5 3.2-.3c1.3 4.1-1.6 9.2-3.5 9.6-1.9.2.3-9.3.3-9.3Z"/><path fill="#E59E9E" stroke="#263238" stroke-linecap="round" stroke-linejoin="round" stroke-miterlimit="10" stroke-width="1.232" d="M221.702 111.701c-1.7-1.3-3.9-1.8-6.1-1.5-1.8.3-4.2.6-5.9.4-3.2-.3-5.7-1.6-8.3 1-2.5 2.6-3.8 14.3-3.8 20.4 0 6.1 4.5 14.7 7.6 16.9 3.2 2.2 12.1 1.9 14.3 0 2.2-1.9 5.7-8.9 6.4-14.7.6-5.7-.6-16.9-1.9-19.8-.4-1-1.4-1.9-2.3-2.7Z"/><path fill="#263238" d="M207.502 127.5c.663 0 1.2-.85 1.2-1.9 0-1.049-.537-1.9-1.2-1.9-.663 0-1.2.851-1.2 1.9 0 1.05.537 1.9 1.2 1.9Zm10.599-1.9c0 1.1-.5 1.9-1.2 1.9s-1.2-.9-1.2-1.9c0-1.1.5-1.9 1.2-1.9.6-.1 1.2.8 1.2 1.9Zm-4.5 11c0 1.1-.5 1.9-1.2 1.9s-1.2-.9-1.2-1.9c0-1.1.5-1.9 1.2-1.9s1.2.8 1.2 1.9Z"/><path fill="#E59E9E" d="M210.101 128c-2 3.1 1.8 5.1 4.3 3.2 1.7-1.3 0-3.2 0-3.2"/><path stroke="#263238" stroke-linecap="round" stroke-linejoin="round" stroke-miterlimit="10" stroke-width="1.232" d="M210.101 128c-2 3.1 1.8 5.1 4.3 3.2 1.7-1.3 0-3.2 0-3.2m-11-6.7s3.2-3 6.5-1.5m5.401.201s3-1.9 5.8 1.7"/><path fill="#fff" stroke="#263238" stroke-linecap="round" stroke-linejoin="round" stroke-miterlimit="10" stroke-width="1.232" d="M114.801 332.5s-19.1 3.801-19.1 5.701c0 2 24.4 7.499 27 7.799 2.6.3 3-12.2 3-12.2l-10.9-1.3Z"/><path fill="#C6FF00" stroke="#263238" stroke-linecap="round" stroke-linejoin="round" stroke-miterlimit="10" stroke-width="1.232" d="m124.301 344.101-27.3-7c-.8.4-1.3.7-1.3 1 0 2 24.4 7.5 27 7.8.6.2 1.2-.6 1.6-1.8Z"/><path fill="#fff" stroke="#263238" stroke-linecap="round" stroke-linejoin="round" stroke-miterlimit="10" stroke-width="1.232" d="M164.501 334.7s-19.4 8.4-18.1 10.3c1.3 2 26.7 1 29.3.7 2.6-.3 0-11.9 0-11.9l-11.2.9Z"/><path fill="#C6FF00" stroke="#263238" stroke-linecap="round" stroke-linejoin="round" stroke-miterlimit="10" stroke-width="1.232" d="M147.102 343.8c-.6.5-.8.9-.6 1.2 1.3 2 26.7 1 29.3.7.6-.1.9-.8 1.1-1.9h-29.8Z"/><path fill="#fff" stroke="#263238" stroke-linecap="round" stroke-linejoin="round" stroke-miterlimit="10" stroke-width="1.232" d="M85.11 206.643h73.299v-3h-73.3v3Z"/><path fill="#fff" stroke="#263238" stroke-linecap="round" stroke-linejoin="round" stroke-miterlimit="10" stroke-width="1.232" d="M64.459 206.643h73.3v-3h-73.3v3ZM72.6 198.4h61.1l-6.6-46.7H66l6.6 46.7Z"/><path fill="#181818" stroke="#263238" stroke-linecap="round" stroke-linejoin="round" stroke-miterlimit="10" stroke-width="1.232" d="M70.1 198.4h61.1l-6.6-46.7H63.5l6.6 46.7Z"/><path fill="#fff" stroke="#263238" stroke-linecap="round" stroke-linejoin="round" stroke-miterlimit="10" stroke-width="1.232" d="m88.8 176.7-6.1 29.9h15.7l6.1-29.9H88.8Zm10.7 8.9c-.1.3-.3.4-.5.4l-8.9-.1c-.4 0-.6-.3-.5-.7l.8-3.4c.1-.3.3-.4.5-.4l8.9.1c.4 0 .6.3.5.7l-.8 3.4Z"/><path fill="#0FAA61" stroke="#263238" stroke-linecap="round" stroke-linejoin="round" stroke-miterlimit="10" stroke-width="1.232" d="M75.82 150.905c1.434-6.074-2.327-12.16-8.4-13.594-6.074-1.434-12.16 2.327-13.595 8.4-1.434 6.074 2.327 12.16 8.4 13.594 6.074 1.434 12.16-2.327 13.595-8.4Z"/><path fill="#181818" d="m64.7 150.6-3.3 3.8c-.2.2-.3.4-.5.5-.5.4-1.1.4-1.6.3-.5-.2-.8-.4-.9-.9-.2-.6-.1-1.3.5-1.9l3.9-4.1-3.7-4.3c-.3-.4-.5-.8-.5-1.2 0-.4.1-.7.3-1 .2-.2.5-.4.9-.6.3-.1.7-.1 1.1 0 .4.1.8.4 1.1.8l3.2 3.7 3-3.5.6-.6c.6-.4 1.1-.6 1.7-.3.4.2.7.5.9.9.2.5.1 1-.2 1.4l-4 4.4 4 4.7c.1.2.2.3.3.5.2.5.1 1-.2 1.5-.3.4-.8.6-1.3.6-.7 0-1.3-.3-1.8-1l-3.5-3.7Z"/><path fill="#fff" stroke="#000" stroke-linecap="round" stroke-linejoin="round" stroke-miterlimit="10" stroke-width="1.232" d="m209 223.601-3.2 119.7c0 1.6-1.3 2.8-2.9 2.8-1.6 0-2.9-1.3-2.9-2.9l-1.6-119.6H209Zm-38.6-.001-3.2 119.7c0 1.6-1.3 2.8-2.9 2.8-1.6 0-2.9-1.3-2.9-2.899L159.8 223.5h10.6v.1Zm-95.7 0-3.2 119.7c0 1.6-1.3 2.8-2.9 2.8-1.6 0-2.9-1.3-2.9-2.899L64.1 223.5h10.6v.1Zm-38.6 0-3.2 119.7c0 1.6-1.3 2.8-2.9 2.8-1.6 0-2.9-1.3-2.9-2.899L25.5 223.5h10.6v.1Z"/><path fill="#fff" stroke="#000" stroke-linecap="round" stroke-linejoin="round" stroke-miterlimit="10" stroke-width="1.232" d="M21.937 224.917h190.9v-14.3h-190.9v14.3Z"/><path fill="#fff" stroke="#000" stroke-linecap="round" stroke-linejoin="round" stroke-miterlimit="10" stroke-width="1.232" d="M159.479 224.917h53.3v-14.3h-53.3v14.3Z"/><path fill="#181818" stroke="#000" stroke-linecap="round" stroke-linejoin="round" stroke-miterlimit="10" stroke-width="1.232" d="M21.937 217.754h190.9v-7.2h-190.9v7.2Z"/><path fill="#0FAA61" stroke="#000" stroke-linecap="round" stroke-linejoin="round" stroke-miterlimit="10" stroke-width="1.232" d="M18.937 213.519h196.8v-7.9h-196.8v7.9Z"/><path fill="#0FAA61" stroke="#000" stroke-linecap="round" stroke-linejoin="round" stroke-miterlimit="10" stroke-width="1.232" d="M18.928 213.519h137v-7.9h-137v7.9Z"/><path stroke="#263238" stroke-linecap="round" stroke-linejoin="round" stroke-miterlimit="10" stroke-width="1.232" d="M448.8 346.2h8.2m-456 0h434.4"/><path fill="#181818" d="M355.715 133.2h6.072V164h-4.62l-13.2-18.832V164h-6.072v-30.8h4.62l13.2 18.788V133.2Zm30.266 28.072c-2.259 2.229-5.016 3.344-8.272 3.344-3.256 0-6.014-1.115-8.272-3.344-2.23-2.259-3.344-5.016-3.344-8.272 0-3.256 1.114-5.999 3.344-8.228 2.258-2.259 5.016-3.388 8.272-3.388 3.256 0 6.013 1.129 8.272 3.388 2.258 2.229 3.388 4.972 3.388 8.228 0 3.256-1.13 6.013-3.388 8.272Zm-12.54-3.916c1.144 1.144 2.566 1.716 4.268 1.716 1.701 0 3.124-.572 4.268-1.716 1.144-1.144 1.716-2.596 1.716-4.356 0-1.76-.572-3.212-1.716-4.356-1.144-1.144-2.567-1.716-4.268-1.716-1.702 0-3.124.572-4.268 1.716-1.115 1.144-1.672 2.596-1.672 4.356 0 1.76.557 3.212 1.672 4.356ZM326.817 175.2c4.224 0 7.744 1.481 10.56 4.444 2.845 2.963 4.268 6.615 4.268 10.956 0 4.341-1.423 7.993-4.268 10.956-2.816 2.963-6.336 4.444-10.56 4.444h-12.232v-30.8h12.232Zm0 24.992c2.669 0 4.84-.88 6.512-2.64 1.672-1.789 2.508-4.107 2.508-6.952 0-2.845-.836-5.148-2.508-6.908-1.672-1.789-3.843-2.684-6.512-2.684h-6.16v19.184h6.16ZM362.408 184h5.676v22h-5.676v-2.596c-1.702 2.141-4.092 3.212-7.172 3.212-2.934 0-5.456-1.115-7.568-3.344-2.083-2.259-3.124-5.016-3.124-8.272 0-3.256 1.041-5.999 3.124-8.228 2.112-2.259 4.634-3.388 7.568-3.388 3.08 0 5.47 1.071 7.172 3.212V184Zm-10.472 15.488c1.144 1.144 2.596 1.716 4.356 1.716 1.76 0 3.212-.572 4.356-1.716 1.173-1.173 1.76-2.669 1.76-4.488 0-1.819-.587-3.3-1.76-4.444-1.144-1.173-2.596-1.76-4.356-1.76-1.76 0-3.212.587-4.356 1.76-1.144 1.144-1.716 2.625-1.716 4.444s.572 3.315 1.716 4.488Zm33.879-10.032h-4.972v9.152c0 .763.19 1.32.572 1.672.381.352.938.557 1.672.616a29.88 29.88 0 0 0 2.728-.044V206c-3.902.44-6.659.073-8.272-1.1-1.584-1.173-2.376-3.271-2.376-6.292v-9.152h-3.828V184h3.828v-4.444l5.676-1.716V184h4.972v5.456ZM405.849 184h5.676v22h-5.676v-2.596c-1.701 2.141-4.092 3.212-7.172 3.212-2.933 0-5.456-1.115-7.568-3.344-2.082-2.259-3.124-5.016-3.124-8.272 0-3.256 1.042-5.999 3.124-8.228 2.112-2.259 4.635-3.388 7.568-3.388 3.08 0 5.471 1.071 7.172 3.212V184Zm-10.472 15.488c1.144 1.144 2.596 1.716 4.356 1.716 1.76 0 3.212-.572 4.356-1.716 1.174-1.173 1.76-2.669 1.76-4.488 0-1.819-.586-3.3-1.76-4.444-1.144-1.173-2.596-1.76-4.356-1.76-1.76 0-3.212.587-4.356 1.76-1.144 1.144-1.716 2.625-1.716 4.444s.572 3.315 1.716 4.488Z"/></svg>