<svg xmlns="http://www.w3.org/2000/svg" width="458" height="358" fill="none" viewBox="0 0 458 358"><path fill="#F6F6F6" d="M105.7 346.4C105.7 346.4 153.7 371.3 208.5 345C263.3 318.7 281.1 267.8 309.6 229.5C324.5 209.5 348.9 198.3 367.5 181.4C427 127.5 405.5 37.4001 351.1 12.7001C303.9 -8.59986 249.5 -0.89986 182.1 35.3001C114.7 71.5001 66.1002 94.9001 30.7002 167.1C-4.69982 239.4 46.0002 311.5 105.7 346.4Z"/><path fill="#0FAA61" d="M397.299 315C397.299 315 393.999 300.8 396.499 288.3C398.999 275.8 404.799 284.1 411.499 275.8C418.199 267.5 414.799 251.6 422.299 244.9C429.799 238.2 440.599 239.1 443.099 226.6C445.599 214.1 447.299 204.1 452.299 205.8C457.299 207.5 448.099 222.5 448.099 231.6C448.099 240.8 453.099 246.6 449.799 255.8C446.499 265 432.299 261.6 432.299 272.5C432.299 283.4 438.099 294.2 433.099 301.7C428.099 309.2 414.799 310.9 413.099 315C411.399 319.2 407.299 326.7 403.099 326.7C398.999 326.7 397.299 315 397.299 315Z"/><path fill="#73DDAB" d="M394.599 315.2C395.399 312.7 393.799 291 386.299 286.8C378.799 282.6 370.499 284.3 366.299 276.8C362.099 269.3 362.099 266 357.999 265.1C353.799 264.3 333.799 260.9 336.299 265.1C338.799 269.3 353.799 262.6 353.799 270.9C353.799 279.2 352.099 292.6 357.099 295.9C362.099 299.2 375.399 298.4 374.599 305.9C373.799 313.4 371.299 315.9 375.399 318.4C379.599 320.9 391.199 331.7 392.899 323.4C394.599 315.2 394.599 315.2 394.599 315.2Z"/><path stroke="#263238" stroke-miterlimit="10" stroke-width="1.232" d="M403.899 333.6C403.899 333.6 399.999 321.5 410.699 299.1C421.399 276.7 429.199 259.8 433.999 251"/><path stroke="#263238" stroke-miterlimit="10" stroke-width="1.232" d="M395.099 335.5C395.099 335.5 393.599 329.7 388.799 313.6C383.899 297.6 378.099 293.2 369.899 287.9C361.599 282.6 361.199 273.8 359.699 271.4"/><path fill="#73DDAB" d="M415.499 326.8C415.499 326.8 416.499 318.1 424.199 315.6C431.999 313.2 439.299 314.1 440.699 308.8C442.199 303.5 442.199 298.1 445.599 295.2C448.999 292.3 453.399 290.8 453.899 292.3C454.399 293.8 448.999 294.7 448.999 299.6C448.999 304.5 456.299 316.6 445.599 321.5C434.899 326.4 426.199 322 422.299 325.4C418.399 328.8 415.999 331.2 415.999 331.2L415.499 326.8Z"/><path stroke="#263238" stroke-miterlimit="10" stroke-width="1.232" d="M414.6 335.5C414.6 335.5 418 322.9 426.3 320C434.6 317.1 443.8 323.4 447.7 317.6C451.6 311.8 448.7 305.9 448.2 302.1"/><path fill="#000" d="M419.999 333.6H389.899C388.599 333.6 387.499 334.7 387.499 336C387.499 337.3 388.599 338.4 389.899 338.4H390.099L392.399 344.5C392.799 345.5 393.699 346.1 394.799 346.1H414.999C415.999 346.1 416.999 345.5 417.399 344.5L419.699 338.4H419.899C421.199 338.4 422.299 337.3 422.299 336C422.499 334.6 421.399 333.6 419.999 333.6Z"/><path stroke="#263238" stroke-linecap="round" stroke-linejoin="round" stroke-miterlimit="10" stroke-width="1.232" d="M96.7008 129.1C114.319 129.1 128.601 114.818 128.601 97.2003C128.601 79.5824 114.319 65.3003 96.7008 65.3003C79.0829 65.3003 64.8008 79.5824 64.8008 97.2003C64.8008 114.818 79.0829 129.1 96.7008 129.1Z"/><path stroke="#263238" stroke-linecap="round" stroke-linejoin="round" stroke-miterlimit="10" stroke-width="1.232" d="M100.806 123.283C115.208 121.013 125.043 107.497 122.773 93.0947C120.503 78.6923 106.987 68.8572 92.5848 71.1273C78.1823 73.3975 68.3472 86.9133 70.6173 101.316C72.8875 115.718 86.4033 125.553 100.806 123.283Z"/><path stroke="#263238" stroke-linecap="round" stroke-linejoin="round" stroke-miterlimit="10" stroke-width="1.232" d="M79.9004 97.2002H96.7004V121.6"/><path fill="#263238" stroke="#181818" stroke-linecap="round" stroke-linejoin="round" stroke-miterlimit="10" stroke-width="1.232" d="M243.801 340.8C243.801 337.8 246.201 335.4 249.201 335.4C252.201 335.4 254.601 337.8 254.601 340.8C254.601 343.8 252.201 346.2 249.201 346.2C246.201 346.2 243.801 343.8 243.801 340.8Z"/><path fill="#fff" stroke="#181818" stroke-linecap="round" stroke-linejoin="round" stroke-miterlimit="10" stroke-width="1.232" d="M246.4 340.801C246.4 339.301 247.6 338.101 249.1 338.101C250.6 338.101 251.8 339.301 251.8 340.801C251.8 342.301 250.6 343.501 249.1 343.501C247.6 343.501 246.4 342.301 246.4 340.801Z"/><path fill="#263238" stroke="#181818" stroke-linecap="round" stroke-linejoin="round" stroke-miterlimit="10" stroke-width="1.232" d="M186.501 340.8C186.501 337.8 188.901 335.4 191.901 335.4C194.901 335.4 197.301 337.8 197.301 340.8C197.301 343.8 194.901 346.2 191.901 346.2C188.901 346.2 186.501 343.8 186.501 340.8Z"/><path fill="#fff" stroke="#181818" stroke-linecap="round" stroke-linejoin="round" stroke-miterlimit="10" stroke-width="1.232" d="M189.101 340.801C189.101 339.301 190.301 338.101 191.801 338.101C193.301 338.101 194.501 339.301 194.501 340.801C194.501 342.301 193.301 343.501 191.801 343.501C190.301 343.501 189.101 342.301 189.101 340.801Z"/><path fill="#263238" stroke="#181818" stroke-linecap="round" stroke-linejoin="round" stroke-miterlimit="10" stroke-width="1.232" d="M167.701 340.8C167.701 337.8 170.101 335.4 173.101 335.4C176.101 335.4 178.501 337.8 178.501 340.8C178.501 343.8 176.101 346.2 173.101 346.2C170.101 346.2 167.701 343.8 167.701 340.8Z"/><path fill="#fff" stroke="#181818" stroke-linecap="round" stroke-linejoin="round" stroke-miterlimit="10" stroke-width="1.232" d="M170.401 340.801C170.401 339.301 171.601 338.101 173.101 338.101C174.601 338.101 175.801 339.301 175.801 340.801C175.801 342.301 174.601 343.501 173.101 343.501C171.601 343.501 170.401 342.301 170.401 340.801Z"/><path fill="#263238" stroke="#181818" stroke-linecap="round" stroke-linejoin="round" stroke-miterlimit="10" stroke-width="1.232" d="M200.101 334.7H211.401V276.8H200.201V334.7H200.101Z"/><path fill="#000" stroke="#181818" stroke-linecap="round" stroke-linejoin="round" stroke-miterlimit="10" stroke-width="1.232" d="M197.124 334.71H214.424V293.81H197.124V334.71Z"/><path fill="#263238" d="M217.401 267.1H231.901V236H217.301L217.401 267.1C217.301 267.1 217.301 267.1 217.401 267.1Z"/><path stroke="#181818" stroke-linecap="round" stroke-linejoin="round" stroke-miterlimit="10" stroke-width="1.232" d="M217.401 267.1H231.901V236H217.301L217.401 267.1ZM217.401 267.1C217.301 267.1 217.301 267.1 217.401 267.1Z"/><path fill="#0FAA61" stroke="#181818" stroke-linecap="round" stroke-linejoin="round" stroke-miterlimit="10" stroke-width="1.232" d="M195.901 235.9H252.601C258.201 235.9 262.701 231.3 262.501 225.7L261.101 170.4C261.001 165 256.601 160.7 251.201 160.7H204.401C199.501 160.7 195.301 164.3 194.601 169.1L186.101 224.4C185.201 230.5 189.901 235.9 195.901 235.9Z"/><path stroke="#181818" stroke-linecap="round" stroke-linejoin="round" stroke-miterlimit="10" stroke-width="1.232" d="M214.501 278.8L239.301 295.2"/><path fill="#263238" stroke="#181818" stroke-linecap="round" stroke-linejoin="round" stroke-miterlimit="10" stroke-width="1.232" d="M240.201 292.7L244.401 295.6C245.901 296.6 246.001 298.7 244.801 299.9L244.501 300.2C243.501 301.2 241.901 301.3 240.801 300.4L236.901 297.2C235.701 296.2 235.601 294.3 236.701 293.2C237.701 292.1 239.201 292 240.201 292.7Z"/><path fill="#0FAA61" stroke="#181818" stroke-linecap="round" stroke-linejoin="round" stroke-miterlimit="10" stroke-width="1.232" d="M159.701 281.6H251.901C256.801 281.6 260.801 277.6 260.801 272.7C260.801 267.8 256.801 263.8 251.901 263.8H159.701C154.801 263.8 150.801 267.8 150.801 272.7C150.801 277.6 154.801 281.6 159.701 281.6Z"/><path fill="#0FAA61" stroke="#181818" stroke-linecap="round" stroke-linejoin="round" stroke-miterlimit="10" stroke-width="1.232" d="M150.901 271.7C151.401 267.2 155.501 263.9 160.101 263.9H207.901C212.501 263.9 216.601 267.2 217.101 271.7C217.701 277.1 213.501 281.7 208.301 281.7H159.801C154.401 281.6 150.201 277.1 150.901 271.7Z"/><path fill="#181818" stroke="#181818" stroke-linecap="round" stroke-linejoin="round" stroke-miterlimit="10" stroke-width="1.232" d="M166.001 337.9H254.501C254.501 335.2 252.301 333.1 249.701 333.1H170.901C168.201 333.1 166.001 335.3 166.001 337.9Z"/><path fill="#263238" stroke="#181818" stroke-linecap="round" stroke-linejoin="round" stroke-miterlimit="10" stroke-width="1.232" d="M181.801 337.9H210.601V333.1H186.601C183.901 333.1 181.801 335.3 181.801 337.9Z"/><path fill="#181818" stroke="#181818" stroke-linecap="round" stroke-linejoin="round" stroke-miterlimit="10" stroke-width="1.232" d="M175.601 226.701L169.201 237.201C169.201 237.201 146.901 239.401 134.101 242.301C121.401 245.201 118.801 259.201 118.201 262.101C117.501 265.301 113.501 332.201 114.801 332.501C116.101 332.801 125.601 333.801 125.601 333.801C125.601 333.801 141.701 268.801 146.501 267.801C151.301 266.801 222.001 268.401 232.601 262.701C243.101 257.001 245.701 240.401 239.601 228.901C233.601 217.401 175.601 226.701 175.601 226.701Z"/><path fill="#181818" d="M218.901 239.4C218.901 239.4 189.301 239.4 174.901 240.7C160.601 242 151.601 252.8 152.301 262.4C152.901 272 164.501 334.7 164.501 334.7L175.701 333.7L181.701 266.5C181.701 266.5 191.701 273 230.501 263"/><path stroke="#263238" stroke-linecap="round" stroke-linejoin="round" stroke-miterlimit="10" stroke-width="1.232" d="M218.901 239.4C218.901 239.4 189.301 239.4 174.901 240.7C160.601 242 151.601 252.8 152.301 262.4C152.901 272 164.501 334.7 164.501 334.7L175.701 333.7L181.701 266.5C181.701 266.5 191.701 273 230.501 263"/><path fill="#E59E9E" stroke="#263238" stroke-linecap="round" stroke-linejoin="round" stroke-miterlimit="10" stroke-width="1.232" d="M289.117 137.042C288.117 136.442 285.017 144.642 285.017 144.642C285.017 144.642 281.217 144.442 278.917 144.642C275.417 144.942 272.517 149.742 272.517 152.942C272.517 156.142 257.817 181.642 257.817 181.642C257.817 181.642 245.117 160.642 240.617 157.142C236.117 153.642 219.617 150.442 219.617 150.442C212.217 149.442 206.517 149.342 199.217 150.442C199.217 150.442 182.617 153.642 178.217 157.142C173.717 160.642 161.017 181.642 161.017 181.642C161.017 181.642 146.317 156.142 146.317 152.942C146.317 149.742 143.417 144.942 139.917 144.642C137.717 144.442 133.817 144.642 133.817 144.642C133.817 144.642 130.617 136.342 129.717 137.042C128.717 137.642 130.317 147.842 131.317 150.142C132.317 152.342 140.217 153.942 140.217 153.942C140.217 153.942 150.117 191.542 153.317 196.642C156.517 201.742 160.017 208.142 168.617 204.242C177.217 200.442 188.017 187.942 188.017 187.942L206.217 188.242H207.617H208.817L230.817 187.942C230.817 187.942 241.617 200.342 250.217 204.242C258.817 208.042 262.317 201.742 265.517 196.642C268.717 191.542 278.617 153.942 278.617 153.942C278.617 153.942 286.617 152.342 287.517 150.142C288.517 147.842 290.117 137.642 289.117 137.042Z"/><path fill="#fff" d="M262.701 172.6C259.901 177.7 257.501 181.8 257.501 181.8C257.501 181.8 244.801 160.8 240.301 157.3C235.801 153.8 219.301 150.6 219.301 150.6C211.901 149.6 206.201 149.5 198.901 150.6C198.901 150.6 182.301 153.8 177.901 157.3C173.401 160.8 160.701 181.8 160.701 181.8C160.701 181.8 158.201 177.4 155.201 172L146.401 177.3C149.001 186.1 151.601 194.5 153.001 196.7C156.201 201.8 159.701 208.2 168.301 204.3C176.901 200.5 187.701 188 187.701 188L205.901 188.3H207.301H208.501L230.501 188C230.501 188 241.301 200.4 249.901 204.3C258.501 208.1 262.001 201.8 265.201 196.7C266.601 194.5 269.301 186 271.801 177.2L262.701 172.6Z"/><path fill="#C6FF00" d="M255.001 187.601C254.801 185.501 254.701 183.501 255.501 182.301C256.001 181.601 256.401 181.101 256.801 180.601C256.501 180.101 256.101 179.401 255.501 178.601C254.901 179.201 254.201 180.001 253.501 181.001C252.201 182.901 252.401 185.401 252.601 187.801C252.801 189.901 252.901 191.901 252.101 193.101C251.401 194.201 250.701 194.101 248.701 193.701C247.201 193.401 245.201 193.001 243.001 193.701C241.201 194.301 240.201 195.701 239.701 197.401C240.301 198.001 241.001 198.501 241.601 199.001C241.901 197.601 242.501 196.301 243.701 195.901C245.301 195.401 246.801 195.701 248.201 196.001C250.101 196.401 252.301 196.901 254.001 194.401C255.401 192.501 255.201 190.001 255.001 187.601Z"/><path fill="#C6FF00" d="M230.401 188.101C230.401 188.101 230.701 188.401 231.201 189.001C232.101 188.601 232.801 188.301 233.101 188.001C233.301 187.801 234.301 187.901 235.201 188.001C236.901 188.201 239.301 188.401 242.301 187.501C246.201 186.401 246.301 182.201 246.401 178.501C246.501 176.401 246.501 174.301 247.201 173.001C248.101 171.301 249.601 171.201 250.801 171.501C250.301 170.701 249.801 169.901 249.201 169.101C247.701 169.301 246.101 170.001 245.101 171.901C244.101 173.701 244.101 176.101 244.001 178.401C243.901 182.301 243.601 184.701 241.501 185.301C238.901 186.001 236.901 185.801 235.201 185.701C233.701 185.601 232.401 185.401 231.401 186.201C230.901 186.601 228.901 187.401 226.701 188.201L230.401 188.101Z"/><path fill="#C6FF00" d="M175.601 193.8C173.401 193.1 171.501 193.5 169.901 193.8C168.001 194.2 167.201 194.3 166.501 193.2C165.701 191.9 165.801 189.9 166.001 187.9C166.201 185.5 166.401 183 165.101 181.1C164.301 179.8 163.501 178.9 162.801 178.3C162.301 179.1 161.901 179.8 161.501 180.3C162.001 180.8 162.601 181.5 163.201 182.4C164.001 183.7 163.901 185.7 163.701 187.7C163.501 190.1 163.301 192.6 164.601 194.5C166.201 196.9 168.401 196.5 170.401 196.1C171.801 195.8 173.301 195.5 174.901 196C176.001 196.4 176.601 197.4 176.901 198.7C177.501 198.2 178.201 197.6 178.801 197.1C178.201 195.6 177.201 194.3 175.601 193.8Z"/><path fill="#C6FF00" d="M183.201 185.6C181.501 185.7 179.501 185.9 176.901 185.2C174.801 184.6 174.601 182.2 174.401 178.3C174.301 176 174.201 173.6 173.301 171.8C172.101 169.7 170.301 169 168.601 169C168.001 169.9 167.401 170.7 166.901 171.6C168.101 171.2 170.201 170.9 171.301 172.9C172.001 174.2 172.101 176.3 172.101 178.4C172.201 182.1 172.401 186.3 176.201 187.4C179.201 188.3 181.601 188 183.301 187.9C184.201 187.8 185.201 187.7 185.401 187.9C185.701 188.1 186.201 188.4 186.901 188.8C187.301 188.4 187.501 188.1 187.501 188.1L191.601 188.2C189.401 187.4 187.301 186.6 186.801 186.1C186.101 185.3 184.701 185.4 183.201 185.6Z"/><g opacity=".5"><path fill="#fff" d="M255.001 187.601C254.801 185.501 254.701 183.501 255.501 182.301C256.001 181.601 256.401 181.101 256.801 180.601C256.501 180.101 256.101 179.401 255.501 178.601C254.901 179.201 254.201 180.001 253.501 181.001C252.201 182.901 252.401 185.401 252.601 187.801C252.801 189.901 252.901 191.901 252.101 193.101C251.401 194.201 250.701 194.101 248.701 193.701C247.201 193.401 245.201 193.001 243.001 193.701C241.201 194.301 240.201 195.701 239.701 197.401C240.301 198.001 241.001 198.501 241.601 199.001C241.901 197.601 242.501 196.301 243.701 195.901C245.301 195.401 246.801 195.701 248.201 196.001C250.101 196.401 252.301 196.901 254.001 194.401C255.401 192.501 255.201 190.001 255.001 187.601Z"/><path fill="#fff" d="M230.401 188.101C230.401 188.101 230.701 188.401 231.201 189.001C232.101 188.601 232.801 188.301 233.101 188.001C233.301 187.801 234.301 187.901 235.201 188.001C236.901 188.201 239.301 188.401 242.301 187.501C246.201 186.401 246.301 182.201 246.401 178.501C246.501 176.401 246.501 174.301 247.201 173.001C248.101 171.301 249.601 171.201 250.801 171.501C250.301 170.701 249.801 169.901 249.201 169.101C247.701 169.301 246.101 170.001 245.101 171.901C244.101 173.701 244.101 176.101 244.001 178.401C243.901 182.301 243.601 184.701 241.501 185.301C238.901 186.001 236.901 185.801 235.201 185.701C233.701 185.601 232.401 185.401 231.401 186.201C230.901 186.601 228.901 187.401 226.701 188.201L230.401 188.101Z"/><path fill="#fff" d="M175.601 193.8C173.401 193.1 171.501 193.5 169.901 193.8C168.001 194.2 167.201 194.3 166.501 193.2C165.701 191.9 165.801 189.9 166.001 187.9C166.201 185.5 166.401 183 165.101 181.1C164.301 179.8 163.501 178.9 162.801 178.3C162.301 179.1 161.901 179.8 161.501 180.3C162.001 180.8 162.601 181.5 163.201 182.4C164.001 183.7 163.901 185.7 163.701 187.7C163.501 190.1 163.301 192.6 164.601 194.5C166.201 196.9 168.401 196.5 170.401 196.1C171.801 195.8 173.301 195.5 174.901 196C176.001 196.4 176.601 197.4 176.901 198.7C177.501 198.2 178.201 197.6 178.801 197.1C178.201 195.6 177.201 194.3 175.601 193.8Z"/><path fill="#fff" d="M183.201 185.6C181.501 185.7 179.501 185.9 176.901 185.2C174.801 184.6 174.601 182.2 174.401 178.3C174.301 176 174.201 173.6 173.301 171.8C172.101 169.7 170.301 169 168.601 169C168.001 169.9 167.401 170.7 166.901 171.6C168.101 171.2 170.201 170.9 171.301 172.9C172.001 174.2 172.101 176.3 172.101 178.4C172.201 182.1 172.401 186.3 176.201 187.4C179.201 188.3 181.601 188 183.301 187.9C184.201 187.8 185.201 187.7 185.401 187.9C185.701 188.1 186.201 188.4 186.901 188.8C187.301 188.4 187.501 188.1 187.501 188.1L191.601 188.2C189.401 187.4 187.301 186.6 186.801 186.1C186.101 185.3 184.701 185.4 183.201 185.6Z"/></g><path stroke="#263238" stroke-linecap="round" stroke-linejoin="round" stroke-miterlimit="10" stroke-width="1.232" d="M262.701 172.6C259.901 177.7 257.501 181.8 257.501 181.8C257.501 181.8 244.801 160.8 240.301 157.3C235.801 153.8 219.301 150.6 219.301 150.6C211.901 149.6 206.201 149.5 198.901 150.6C198.901 150.6 182.301 153.8 177.901 157.3C173.401 160.8 160.701 181.8 160.701 181.8C160.701 181.8 158.201 177.4 155.201 172L146.401 177.3C149.001 186.1 151.601 194.5 153.001 196.7C156.201 201.8 159.701 208.2 168.301 204.3C176.901 200.5 187.701 188 187.701 188L205.901 188.3H207.301H208.501L230.501 188C230.501 188 241.301 200.4 249.901 204.3C258.501 208.1 262.001 201.8 265.201 196.7C266.601 194.5 269.301 186 271.801 177.2L262.701 172.6Z"/><path fill="#fff" d="M181.601 172.8C181.601 172.8 177.501 181.7 178.401 187.5C179.401 193.2 179.401 194.5 179.401 194.5C179.401 194.5 173.301 211.1 172.401 217.1C171.401 223.2 174.301 227.9 177.801 230.5C181.301 233 229.101 233.7 236.401 231.8C243.701 229.9 243.101 222.9 242.801 216.5C242.501 210.1 239.901 196.4 239.901 196.4C239.901 196.4 240.901 177 236.701 172.2"/><path fill="#181818" d="M218.201 185.6C216.801 185.6 215.301 185 213.701 183.6C209.401 179.6 206.501 178.9 203.401 181.2C202.901 181.6 202.401 181.9 202.001 182.3C198.801 184.7 195.801 187 191.101 184.1C190.001 183.4 189.001 182.7 188.201 182.1C185.001 179.8 183.601 178.9 181.401 180.8C179.701 182.2 178.401 183 176.901 182.8C175.001 182.6 173.601 180.8 171.001 177.2L170.801 177C169.701 175.6 168.601 174.8 167.301 174.7C165.101 174.5 163.301 176.4 163.201 176.4C162.701 176.9 162.001 176.9 161.601 176.4C161.101 175.9 161.101 175.2 161.601 174.8C161.701 174.7 164.201 172.2 167.401 172.5C169.401 172.6 171.101 173.7 172.601 175.7L172.801 175.9C174.901 178.6 176.201 180.4 177.101 180.6C177.601 180.7 178.501 180.2 179.901 179.1C183.601 176 186.501 178.1 189.501 180.3C190.401 180.9 191.301 181.6 192.301 182.2C195.701 184.3 197.501 182.9 200.601 180.5C201.101 180.1 201.601 179.8 202.101 179.4C207.201 175.7 211.701 178.6 215.401 182C218.201 184.5 219.901 183.4 223.501 180.7C224.201 180.2 224.901 179.6 225.701 179.1L226.101 178.8C230.801 175.5 231.301 175.8 237.701 179.3L239.401 180.2C241.601 181.4 243.001 182.2 243.601 182.1C244.101 182.1 244.701 181.4 245.901 180C246.401 179.4 247.001 178.8 247.701 178C252.901 172.5 254.601 172.8 258.701 174.7L259.001 174.9C259.601 175.2 259.801 175.8 259.601 176.4C259.301 177 258.701 177.2 258.101 177L257.801 176.8C254.401 175.2 253.701 174.9 249.401 179.5C248.701 180.2 248.101 180.9 247.601 181.4C244.301 185.2 243.601 185 238.301 182L236.601 181.1C231.001 178 231.001 178 227.401 180.4L227.001 180.7C226.201 181.2 225.501 181.8 224.901 182.3C222.701 184 220.501 185.6 218.201 185.6ZM224.801 193.4C225.501 192.9 226.201 192.4 226.901 191.8L227.301 191.5C230.801 189 230.801 189.1 236.501 192.2L238.201 193.1C243.501 196.1 244.201 196.2 247.501 192.5C248.001 191.9 248.601 191.3 249.301 190.6C253.601 186 254.201 186.3 257.701 187.9L258.001 188.1C258.601 188.4 259.301 188.1 259.501 187.5C259.801 186.9 259.501 186.2 258.901 186L258.601 185.8C254.501 183.9 252.801 183.5 247.601 189.1C246.901 189.9 246.301 190.5 245.801 191.1C244.601 192.5 244.001 193.1 243.501 193.2C242.901 193.2 241.501 192.5 239.301 191.3L237.601 190.4C231.201 186.9 230.701 186.6 226.001 189.9L225.601 190.2C224.801 190.7 224.101 191.3 223.401 191.8C219.701 194.6 218.001 195.7 215.301 193.1C211.601 189.7 207.201 186.8 202.001 190.5C201.501 190.9 201.001 191.2 200.501 191.6C197.401 194 195.601 195.4 192.201 193.3C191.201 192.7 190.301 192 189.401 191.4C186.401 189.2 183.501 187.1 179.801 190.2C178.401 191.3 177.601 191.8 177.001 191.7C176.101 191.6 174.701 189.8 172.701 187L172.501 186.8C171.001 184.8 169.301 183.8 167.301 183.6C164.101 183.4 161.601 185.8 161.501 185.9C161.001 186.4 161.001 187.1 161.501 187.5C162.001 188 162.701 188 163.101 187.5C163.101 187.5 165.001 185.7 167.201 185.8C168.501 185.9 169.601 186.7 170.701 188.1L170.901 188.3C173.601 191.9 174.901 193.6 176.801 193.9C178.301 194.1 179.601 193.3 181.301 191.9C183.601 190 184.901 190.9 188.101 193.2C189.001 193.8 189.901 194.5 191.001 195.2C195.701 198.1 198.701 195.8 201.901 193.4C202.401 193 202.801 192.7 203.301 192.3C206.401 190.1 209.301 190.7 213.601 194.7C215.201 196.2 216.701 196.7 218.101 196.7C220.501 196.7 222.701 195.1 224.801 193.4Z"/><path fill="#fff" d="M218.201 185.6C216.801 185.6 215.301 185 213.701 183.6C209.401 179.6 206.501 178.9 203.401 181.2C202.901 181.6 202.401 181.9 202.001 182.3C198.801 184.7 195.801 187 191.101 184.1C190.001 183.4 189.001 182.7 188.201 182.1C185.001 179.8 183.601 178.9 181.401 180.8C179.701 182.2 178.401 183 176.901 182.8C175.001 182.6 173.601 180.8 171.001 177.2L170.801 177C169.701 175.6 168.601 174.8 167.301 174.7C165.101 174.5 163.301 176.4 163.201 176.4C162.701 176.9 162.001 176.9 161.601 176.4C161.101 175.9 161.101 175.2 161.601 174.8C161.701 174.7 164.201 172.2 167.401 172.5C169.401 172.6 171.101 173.7 172.601 175.7L172.801 175.9C174.901 178.6 176.201 180.4 177.101 180.6C177.601 180.7 178.501 180.2 179.901 179.1C183.601 176 186.501 178.1 189.501 180.3C190.401 180.9 191.301 181.6 192.301 182.2C195.701 184.3 197.501 182.9 200.601 180.5C201.101 180.1 201.601 179.8 202.101 179.4C207.201 175.7 211.701 178.6 215.401 182C218.201 184.5 219.901 183.4 223.501 180.7C224.201 180.2 224.901 179.6 225.701 179.1L226.101 178.8C230.801 175.5 231.301 175.8 237.701 179.3L239.401 180.2C241.601 181.4 243.001 182.2 243.601 182.1C244.101 182.1 244.701 181.4 245.901 180C246.401 179.4 247.001 178.8 247.701 178C252.901 172.5 254.601 172.8 258.701 174.7L259.001 174.9C259.601 175.2 259.801 175.8 259.601 176.4C259.301 177 258.701 177.2 258.101 177L257.801 176.8C254.401 175.2 253.701 174.9 249.401 179.5C248.701 180.2 248.101 180.9 247.601 181.4C244.301 185.2 243.601 185 238.301 182L236.601 181.1C231.001 178 231.001 178 227.401 180.4L227.001 180.7C226.201 181.2 225.501 181.8 224.901 182.3C222.701 184 220.501 185.6 218.201 185.6ZM224.801 193.4C225.501 192.9 226.201 192.4 226.901 191.8L227.301 191.5C230.801 189 230.801 189.1 236.501 192.2L238.201 193.1C243.501 196.1 244.201 196.2 247.501 192.5C248.001 191.9 248.601 191.3 249.301 190.6C253.601 186 254.201 186.3 257.701 187.9L258.001 188.1C258.601 188.4 259.301 188.1 259.501 187.5C259.801 186.9 259.501 186.2 258.901 186L258.601 185.8C254.501 183.9 252.801 183.5 247.601 189.1C246.901 189.9 246.301 190.5 245.801 191.1C244.601 192.5 244.001 193.1 243.501 193.2C242.901 193.2 241.501 192.5 239.301 191.3L237.601 190.4C231.201 186.9 230.701 186.6 226.001 189.9L225.601 190.2C224.801 190.7 224.101 191.3 223.401 191.8C219.701 194.6 218.001 195.7 215.301 193.1C211.601 189.7 207.201 186.8 202.001 190.5C201.501 190.9 201.001 191.2 200.501 191.6C197.401 194 195.601 195.4 192.201 193.3C191.201 192.7 190.301 192 189.401 191.4C186.401 189.2 183.501 187.1 179.801 190.2C178.401 191.3 177.601 191.8 177.001 191.7C176.101 191.6 174.701 189.8 172.701 187L172.501 186.8C171.001 184.8 169.301 183.8 167.301 183.6C164.101 183.4 161.601 185.8 161.501 185.9C161.001 186.4 161.001 187.1 161.501 187.5C162.001 188 162.701 188 163.101 187.5C163.101 187.5 165.001 185.7 167.201 185.8C168.501 185.9 169.601 186.7 170.701 188.1L170.901 188.3C173.601 191.9 174.901 193.6 176.801 193.9C178.301 194.1 179.601 193.3 181.301 191.9C183.601 190 184.901 190.9 188.101 193.2C189.001 193.8 189.901 194.5 191.001 195.2C195.701 198.1 198.701 195.8 201.901 193.4C202.401 193 202.801 192.7 203.301 192.3C206.401 190.1 209.301 190.7 213.601 194.7C215.201 196.2 216.701 196.7 218.101 196.7C220.501 196.7 222.701 195.1 224.801 193.4Z" opacity=".5"/><path stroke="#263238" stroke-linecap="round" stroke-linejoin="round" stroke-miterlimit="10" stroke-width="1.232" d="M181.601 172.8C181.601 172.8 177.501 181.7 178.401 187.5C179.401 193.2 179.401 194.5 179.401 194.5C179.401 194.5 173.301 211.1 172.401 217.1C171.401 223.2 174.301 227.9 177.801 230.5C181.301 233 229.101 233.7 236.401 231.8C243.701 229.9 243.101 222.9 242.801 216.5C242.501 210.1 239.901 196.4 239.901 196.4C239.901 196.4 240.901 177 236.701 172.2"/><path fill="#000" stroke="#263238" stroke-linecap="round" stroke-linejoin="round" stroke-miterlimit="10" stroke-width="1.232" d="M198.801 150.5C198.801 150.5 198.301 150.6 197.401 150.8C197.301 151.4 197.201 152 197.201 152.6C197.201 158.7 203.701 163.6 211.701 163.6C219.701 163.6 226.201 158.7 226.201 152.6C226.201 152.4 226.201 152.3 226.201 152.1C222.301 151.1 219.201 150.5 219.201 150.5C211.801 149.5 206.101 149.4 198.801 150.5Z"/><path fill="#E59E9E" stroke="#263238" stroke-linecap="round" stroke-linejoin="round" stroke-miterlimit="10" stroke-width="1.232" d="M202.001 144.4C202.001 144.4 201.001 152 202.001 154.6C203.001 157.1 209.001 161.9 215.101 160C221.201 158.1 222.101 152.4 222.101 150.8C222.101 149.2 222.101 141.9 222.101 141.9L202.301 142.5L202.001 144.4Z"/><path fill="#181818" stroke="#263238" stroke-linecap="round" stroke-linejoin="round" stroke-miterlimit="10" stroke-width="1.232" d="M212.202 141.3C224.683 141.3 234.802 131.361 234.802 119.1C234.802 106.84 224.683 96.9004 212.202 96.9004C199.72 96.9004 189.602 106.84 189.602 119.1C189.602 131.361 199.72 141.3 212.202 141.3Z"/><path fill="#E59E9E" stroke="#263238" stroke-linecap="round" stroke-linejoin="round" stroke-miterlimit="10" stroke-width="1.232" d="M197.901 126.601C197.901 126.601 196.001 122.101 194.701 126.301C193.401 130.501 196.301 135.501 198.201 135.901C200.101 136.101 197.901 126.601 197.901 126.601Z"/><path fill="#E59E9E" stroke="#263238" stroke-linecap="round" stroke-linejoin="round" stroke-miterlimit="10" stroke-width="1.232" d="M225.401 126.601C225.401 126.601 227.301 122.101 228.601 126.301C229.901 130.401 227.001 135.501 225.101 135.901C223.201 136.101 225.401 126.601 225.401 126.601Z"/><path fill="#E59E9E" stroke="#263238" stroke-linecap="round" stroke-linejoin="round" stroke-miterlimit="10" stroke-width="1.232" d="M221.702 111.701C220.002 110.401 217.802 109.901 215.602 110.201C213.802 110.501 211.402 110.801 209.702 110.601C206.502 110.301 204.002 109.001 201.402 111.601C198.902 114.201 197.602 125.901 197.602 132.001C197.602 138.101 202.102 146.701 205.202 148.901C208.402 151.101 217.302 150.801 219.502 148.901C221.702 147.001 225.202 140.001 225.902 134.201C226.502 128.501 225.302 117.301 224.002 114.401C223.602 113.401 222.602 112.501 221.702 111.701Z"/><path fill="#263238" d="M207.502 127.5C208.165 127.5 208.702 126.65 208.702 125.6C208.702 124.551 208.165 123.7 207.502 123.7C206.839 123.7 206.302 124.551 206.302 125.6C206.302 126.65 206.839 127.5 207.502 127.5Z"/><path fill="#263238" d="M218.101 125.6C218.101 126.7 217.601 127.5 216.901 127.5C216.201 127.5 215.701 126.6 215.701 125.6C215.701 124.5 216.201 123.7 216.901 123.7C217.501 123.6 218.101 124.5 218.101 125.6Z"/><path fill="#263238" d="M213.601 136.6C213.601 137.7 213.101 138.5 212.401 138.5C211.701 138.5 211.201 137.6 211.201 136.6C211.201 135.5 211.701 134.7 212.401 134.7C213.101 134.7 213.601 135.5 213.601 136.6Z"/><path fill="#E59E9E" d="M210.101 128C208.101 131.1 211.901 133.1 214.401 131.2C216.101 129.9 214.401 128 214.401 128"/><path stroke="#263238" stroke-linecap="round" stroke-linejoin="round" stroke-miterlimit="10" stroke-width="1.232" d="M210.101 128C208.101 131.1 211.901 133.1 214.401 131.2C216.101 129.9 214.401 128 214.401 128"/><path stroke="#263238" stroke-linecap="round" stroke-linejoin="round" stroke-miterlimit="10" stroke-width="1.232" d="M203.401 121.3C203.401 121.3 206.601 118.3 209.901 119.8"/><path stroke="#263238" stroke-linecap="round" stroke-linejoin="round" stroke-miterlimit="10" stroke-width="1.232" d="M215.302 120.001C215.302 120.001 218.302 118.101 221.102 121.701"/><path fill="#fff" stroke="#263238" stroke-linecap="round" stroke-linejoin="round" stroke-miterlimit="10" stroke-width="1.232" d="M114.801 332.5C114.801 332.5 95.7012 336.301 95.7012 338.201C95.7012 340.201 120.101 345.7 122.701 346C125.301 346.3 125.701 333.8 125.701 333.8L114.801 332.5Z"/><path fill="#C6FF00" stroke="#263238" stroke-linecap="round" stroke-linejoin="round" stroke-miterlimit="10" stroke-width="1.232" d="M124.301 344.101L97.0012 337.101C96.2012 337.501 95.7012 337.801 95.7012 338.101C95.7012 340.101 120.101 345.601 122.701 345.901C123.301 346.101 123.901 345.301 124.301 344.101Z"/><path fill="#fff" stroke="#263238" stroke-linecap="round" stroke-linejoin="round" stroke-miterlimit="10" stroke-width="1.232" d="M164.501 334.7C164.501 334.7 145.101 343.1 146.401 345C147.701 347 173.101 346 175.701 345.7C178.301 345.4 175.701 333.8 175.701 333.8L164.501 334.7Z"/><path fill="#C6FF00" stroke="#263238" stroke-linecap="round" stroke-linejoin="round" stroke-miterlimit="10" stroke-width="1.232" d="M147.102 343.8C146.502 344.3 146.302 344.7 146.502 345C147.802 347 173.202 346 175.802 345.7C176.402 345.6 176.702 344.9 176.902 343.8H147.102Z"/><path fill="#fff" stroke="#263238" stroke-linecap="round" stroke-linejoin="round" stroke-miterlimit="10" stroke-width="1.232" d="M85.1092 206.643H158.409V203.643H85.1092V206.643Z"/><path fill="#fff" stroke="#263238" stroke-linecap="round" stroke-linejoin="round" stroke-miterlimit="10" stroke-width="1.232" d="M64.4588 206.643H137.759V203.643H64.4588V206.643Z"/><path fill="#fff" stroke="#263238" stroke-linecap="round" stroke-linejoin="round" stroke-miterlimit="10" stroke-width="1.232" d="M72.6 198.4H133.7L127.1 151.7H66L72.6 198.4Z"/><path fill="#181818" stroke="#263238" stroke-linecap="round" stroke-linejoin="round" stroke-miterlimit="10" stroke-width="1.232" d="M70.1 198.4H131.2L124.6 151.7H63.5L70.1 198.4Z"/><path fill="#fff" stroke="#263238" stroke-linecap="round" stroke-linejoin="round" stroke-miterlimit="10" stroke-width="1.232" d="M88.8002 176.7L82.7002 206.6H98.4002L104.5 176.7H88.8002ZM99.5002 185.6C99.4002 185.9 99.2002 186 99.0002 186L90.1002 185.9C89.7002 185.9 89.5002 185.6 89.6002 185.2L90.4002 181.8C90.5002 181.5 90.7002 181.4 90.9002 181.4L99.8002 181.5C100.2 181.5 100.4 181.8 100.3 182.2L99.5002 185.6Z"/><path fill="#0FAA61" stroke="#263238" stroke-linecap="round" stroke-linejoin="round" stroke-miterlimit="10" stroke-width="1.232" d="M75.8196 150.905C77.2537 144.831 73.4927 138.745 67.4192 137.311C61.3456 135.877 55.2594 139.638 53.8253 145.711C52.3911 151.785 56.1521 157.871 62.2257 159.305C68.2992 160.739 74.3854 156.978 75.8196 150.905Z"/><path fill="#181818" d="M64.7003 150.6L61.4002 154.4C61.2002 154.6 61.1002 154.8 60.9002 154.9C60.4002 155.3 59.8003 155.3 59.3003 155.2C58.8003 155 58.5002 154.8 58.4002 154.3C58.2002 153.7 58.3002 153 58.9002 152.4L62.8003 148.3L59.1002 144C58.8002 143.6 58.6002 143.2 58.6002 142.8C58.6002 142.4 58.7002 142.1 58.9002 141.8C59.1002 141.6 59.4003 141.4 59.8003 141.2C60.1003 141.1 60.5002 141.1 60.9002 141.2C61.3002 141.3 61.7002 141.6 62.0002 142L65.2003 145.7L68.2003 142.2C68.4003 142 68.6003 141.8 68.8003 141.6C69.4003 141.2 69.9002 141 70.5002 141.3C70.9002 141.5 71.2002 141.8 71.4002 142.2C71.6002 142.7 71.5003 143.2 71.2003 143.6L67.2003 148L71.2003 152.7C71.3003 152.9 71.4002 153 71.5002 153.2C71.7002 153.7 71.6003 154.2 71.3003 154.7C71.0002 155.1 70.5002 155.3 70.0002 155.3C69.3002 155.3 68.7003 155 68.2003 154.3L64.7003 150.6Z"/><path fill="#fff" stroke="#000" stroke-linecap="round" stroke-linejoin="round" stroke-miterlimit="10" stroke-width="1.232" d="M209 223.601L205.8 343.301C205.8 344.901 204.5 346.101 202.9 346.101C201.3 346.101 200 344.801 200 343.201L198.4 223.601H209Z"/><path fill="#fff" stroke="#000" stroke-linecap="round" stroke-linejoin="round" stroke-miterlimit="10" stroke-width="1.232" d="M170.4 223.6L167.2 343.3C167.2 344.9 165.9 346.1 164.3 346.1C162.7 346.1 161.4 344.8 161.4 343.201L159.8 223.5H170.4V223.6Z"/><path fill="#fff" stroke="#000" stroke-linecap="round" stroke-linejoin="round" stroke-miterlimit="10" stroke-width="1.232" d="M74.6996 223.6L71.4996 343.3C71.4996 344.9 70.1996 346.1 68.5996 346.1C66.9996 346.1 65.6996 344.8 65.6996 343.201L64.0996 223.5H74.6996V223.6Z"/><path fill="#fff" stroke="#000" stroke-linecap="round" stroke-linejoin="round" stroke-miterlimit="10" stroke-width="1.232" d="M36.1 223.6L32.9 343.3C32.9 344.9 31.6 346.1 30 346.1C28.4 346.1 27.1 344.8 27.1 343.201L25.5 223.5H36.1V223.6Z"/><path fill="#fff" stroke="#000" stroke-linecap="round" stroke-linejoin="round" stroke-miterlimit="10" stroke-width="1.232" d="M21.9369 224.917L212.837 224.917V210.617L21.9369 210.617V224.917Z"/><path fill="#fff" stroke="#000" stroke-linecap="round" stroke-linejoin="round" stroke-miterlimit="10" stroke-width="1.232" d="M159.479 224.917H212.779V210.617H159.479V224.917Z"/><path fill="#181818" stroke="#000" stroke-linecap="round" stroke-linejoin="round" stroke-miterlimit="10" stroke-width="1.232" d="M21.9369 217.754L212.837 217.754V210.554L21.9369 210.554V217.754Z"/><path fill="#0FAA61" stroke="#000" stroke-linecap="round" stroke-linejoin="round" stroke-miterlimit="10" stroke-width="1.232" d="M18.9373 213.519L215.737 213.519V205.619L18.9373 205.619V213.519Z"/><path fill="#0FAA61" stroke="#000" stroke-linecap="round" stroke-linejoin="round" stroke-miterlimit="10" stroke-width="1.232" d="M18.9277 213.519L155.928 213.519V205.619L18.9277 205.619V213.519Z"/><path stroke="#263238" stroke-linecap="round" stroke-linejoin="round" stroke-miterlimit="10" stroke-width="1.232" d="M448.8 346.2H457"/><path stroke="#263238" stroke-linecap="round" stroke-linejoin="round" stroke-miterlimit="10" stroke-width="1.232" d="M1 346.2H435.4"/><path fill="#181818" d="M355.715 133.2H361.787V164H357.167L343.967 145.168V164H337.895V133.2H342.515L355.715 151.988V133.2ZM385.981 161.272C383.722 163.501 380.965 164.616 377.709 164.616C374.453 164.616 371.695 163.501 369.437 161.272C367.207 159.013 366.093 156.256 366.093 153C366.093 149.744 367.207 147.001 369.437 144.772C371.695 142.513 374.453 141.384 377.709 141.384C380.965 141.384 383.722 142.513 385.981 144.772C388.239 147.001 389.369 149.744 389.369 153C389.369 156.256 388.239 159.013 385.981 161.272ZM373.441 157.356C374.585 158.5 376.007 159.072 377.709 159.072C379.41 159.072 380.833 158.5 381.977 157.356C383.121 156.212 383.693 154.76 383.693 153C383.693 151.24 383.121 149.788 381.977 148.644C380.833 147.5 379.41 146.928 377.709 146.928C376.007 146.928 374.585 147.5 373.441 148.644C372.326 149.788 371.769 151.24 371.769 153C371.769 154.76 372.326 156.212 373.441 157.356ZM326.817 175.2C331.041 175.2 334.561 176.681 337.377 179.644C340.222 182.607 341.645 186.259 341.645 190.6C341.645 194.941 340.222 198.593 337.377 201.556C334.561 204.519 331.041 206 326.817 206H314.585V175.2H326.817ZM326.817 200.192C329.486 200.192 331.657 199.312 333.329 197.552C335.001 195.763 335.837 193.445 335.837 190.6C335.837 187.755 335.001 185.452 333.329 183.692C331.657 181.903 329.486 181.008 326.817 181.008H320.657V200.192H326.817ZM362.408 184H368.084V206H362.408V203.404C360.706 205.545 358.316 206.616 355.236 206.616C352.302 206.616 349.78 205.501 347.668 203.272C345.585 201.013 344.544 198.256 344.544 195C344.544 191.744 345.585 189.001 347.668 186.772C349.78 184.513 352.302 183.384 355.236 183.384C358.316 183.384 360.706 184.455 362.408 186.596V184ZM351.936 199.488C353.08 200.632 354.532 201.204 356.292 201.204C358.052 201.204 359.504 200.632 360.648 199.488C361.821 198.315 362.408 196.819 362.408 195C362.408 193.181 361.821 191.7 360.648 190.556C359.504 189.383 358.052 188.796 356.292 188.796C354.532 188.796 353.08 189.383 351.936 190.556C350.792 191.7 350.22 193.181 350.22 195C350.22 196.819 350.792 198.315 351.936 199.488ZM385.815 189.456H380.843V198.608C380.843 199.371 381.033 199.928 381.415 200.28C381.796 200.632 382.353 200.837 383.087 200.896C383.82 200.925 384.729 200.911 385.815 200.852V206C381.913 206.44 379.156 206.073 377.543 204.9C375.959 203.727 375.167 201.629 375.167 198.608V189.456H371.339V184H375.167V179.556L380.843 177.84V184H385.815V189.456ZM405.849 184H411.525V206H405.849V203.404C404.148 205.545 401.757 206.616 398.677 206.616C395.744 206.616 393.221 205.501 391.109 203.272C389.027 201.013 387.985 198.256 387.985 195C387.985 191.744 389.027 189.001 391.109 186.772C393.221 184.513 395.744 183.384 398.677 183.384C401.757 183.384 404.148 184.455 405.849 186.596V184ZM395.377 199.488C396.521 200.632 397.973 201.204 399.733 201.204C401.493 201.204 402.945 200.632 404.089 199.488C405.263 198.315 405.849 196.819 405.849 195C405.849 193.181 405.263 191.7 404.089 190.556C402.945 189.383 401.493 188.796 399.733 188.796C397.973 188.796 396.521 189.383 395.377 190.556C394.233 191.7 393.661 193.181 393.661 195C393.661 196.819 394.233 198.315 395.377 199.488Z"/></svg>